<svg width="1440" height="350" viewBox="0 0 1440 350" fill="none" xmlns="http://www.w3.org/2000/svg">
<g clip-path="url(#clip0_9_10)">
<line y1="233" x2="245" y2="233" stroke="#0FC2EA" stroke-width="2"/>
<line x1="244.665" y1="233.253" x2="299.665" y2="282.253" stroke="#0FC2EA" stroke-width="2"/>
<line x1="299" y1="282" x2="531" y2="282" stroke="#0FC2EA" stroke-width="2"/>
<circle cx="532" cy="282" r="2" fill="#0FC2EA"/>
<line x1="8" y1="168" x2="7.99999" y2="350" stroke="#9F9FA0" stroke-width="2"/>
<circle cx="8" cy="169" r="2" fill="#9F9FA0"/>
<line x1="135" y1="5.91389e-08" x2="135" y2="140" stroke="#E5683E" stroke-width="2"/>
<line x1="134.804" y1="139.594" x2="117.804" y2="162.594" stroke="#E5683E" stroke-width="2"/>
<line x1="118" y1="162" x2="118" y2="283" stroke="#E5683E" stroke-width="2"/>
<circle cx="118" cy="283" r="2" fill="#E6632A"/>
<line x1="143" y1="5.91389e-08" x2="143" y2="140" stroke="#F5C739" stroke-width="2"/>
<line x1="142.804" y1="139.594" x2="125.804" y2="162.594" stroke="#F5C739" stroke-width="2"/>
<line x1="126" y1="162" x2="126" y2="283" stroke="#F5C739" stroke-width="2"/>
<circle cx="126" cy="283" r="2" fill="#F5C739"/>
<line x1="153" y1="5.91389e-08" x2="153" y2="140" stroke="#B00D7C" stroke-width="2"/>
<line x1="152.804" y1="139.594" x2="135.804" y2="162.594" stroke="#B00D7C" stroke-width="2"/>
<line x1="136" y1="162" x2="136" y2="283" stroke="#B00D7C" stroke-width="2"/>
<circle cx="136" cy="283" r="2" fill="#B00D7C"/>
<line x1="161" y1="5.91389e-08" x2="161" y2="140" stroke="#2765B0" stroke-width="2"/>
<line x1="160.804" y1="139.594" x2="143.804" y2="162.594" stroke="#2765B0" stroke-width="2"/>
<line x1="144" y1="162" x2="144" y2="283" stroke="#2765B0" stroke-width="2"/>
<circle cx="144" cy="283" r="2" fill="#2765B0"/>
<line x1="169" y1="5.91389e-08" x2="169" y2="140" stroke="#1F8C43" stroke-width="2"/>
<line x1="168.804" y1="139.594" x2="151.804" y2="162.594" stroke="#1F8C43" stroke-width="2"/>
<line x1="152" y1="162" x2="152" y2="283" stroke="#1F8C43" stroke-width="2"/>
<circle cx="152" cy="283" r="2" fill="#1F8C43"/>
<line x1="277" y1="350" x2="277" y2="335" stroke="#31B495" stroke-width="2"/>
<line x1="276.367" y1="336.226" x2="287.367" y2="327.226" stroke="#31B495" stroke-width="2"/>
<line x1="287" y1="328" x2="287" y2="310" stroke="#31B495" stroke-width="2"/>
<line x1="286.39" y1="311.207" x2="312.39" y2="291.207" stroke="#31B495" stroke-width="2"/>
<line x1="312" y1="292" x2="312" y2="264" stroke="#31B495" stroke-width="2"/>
<line x1="313" y1="265" x2="478" y2="265" stroke="#31B495" stroke-width="2"/>
<line x1="477" y1="266" x2="477" y2="250" stroke="#31B495" stroke-width="2"/>
<line x1="477.373" y1="250.221" x2="636.373" y2="122.221" stroke="#31B495" stroke-width="2"/>
<line x1="636" y1="123" x2="636" y2="49" stroke="#31B495" stroke-width="2"/>
<circle cx="636" cy="50" r="2" fill="#31B495"/>
<line x1="261" y1="350" x2="261" y2="329" stroke="#DA5A98" stroke-width="2"/>
<line x1="261.459" y1="329.841" x2="205.459" y2="293.841" stroke="#DA5A98" stroke-width="2"/>
<line x1="206" y1="294" x2="192" y2="294" stroke="#DA5A98" stroke-width="2"/>
<line x1="191" y1="295" x2="191" y2="266" stroke="#DA5A98" stroke-width="2"/>
<line x1="191.348" y1="266.759" x2="113.348" y2="199.759" stroke="#DA5A98" stroke-width="2"/>
<line x1="114" y1="200" x2="17" y2="200" stroke="#DA5A98" stroke-width="2"/>
<circle cx="16" cy="200" r="2" fill="#DA5A98"/>
<line x1="274" y1="160" x2="384" y2="160" stroke="#9F83B6" stroke-width="2"/>
<line x1="383.293" y1="160.293" x2="405.293" y2="138.293" stroke="#9F83B6" stroke-width="2"/>
<line x1="403.986" y1="139" x2="478.986" y2="137.987" stroke="#9F83B6" stroke-width="2"/>
<line x1="478" y1="139" x2="478" y2="100" stroke="#9F83B6" stroke-width="2"/>
<line x1="477" y1="99" x2="628" y2="99" stroke="#9F83B6" stroke-width="2"/>
<line x1="627" y1="99" x2="627" y2="51" stroke="#9F83B6" stroke-width="2"/>
<circle cx="627" cy="50" r="2" fill="#9F83B6"/>
<circle cx="274" cy="160" r="2" fill="#9F83B6"/>
<line x1="645" y1="50" x2="645" y2="123" stroke="#EDF136" stroke-opacity="0.99" stroke-width="2"/>
<line x1="644" y1="122" x2="695" y2="122" stroke="#EDF136" stroke-opacity="0.99" stroke-width="2"/>
<line x1="694.845" y1="121.465" x2="713.845" y2="151.465" stroke="#EDF136" stroke-opacity="0.99" stroke-width="2"/>
<line x1="712" y1="151" x2="857" y2="151" stroke="#EDF136" stroke-opacity="0.99" stroke-width="2"/>
<line x1="858" y1="150" x2="858" y2="232" stroke="#EDF136" stroke-opacity="0.99" stroke-width="2"/>
<line x1="857" y1="231" x2="997" y2="231" stroke="#EDF136" stroke-opacity="0.99" stroke-width="2"/>
<line x1="996.541" y1="231.159" x2="1097.54" y2="296.159" stroke="#EDF136" stroke-opacity="0.99" stroke-width="2"/>
<circle cx="645" cy="50" r="2" fill="#EDF136" fill-opacity="0.99"/>
<circle cx="1097" cy="296" r="2" fill="#EDF136" fill-opacity="0.99"/>
<line x1="1242" y1="333" x2="1440" y2="333" stroke="#1AACA8" stroke-width="2"/>
<circle cx="1241" cy="333" r="2" fill="#1AACA8"/>
<line x1="1242" y1="327" x2="1440" y2="327" stroke="#9DCA40" stroke-width="2"/>
<circle cx="1241" cy="327" r="2" fill="#9DCA40"/>
<line x1="1242" y1="321" x2="1440" y2="321" stroke="#0FC2EA" stroke-width="2"/>
<circle cx="1241" cy="321" r="2" fill="#0FC2EA"/>
<line x1="1242" y1="315" x2="1440" y2="315" stroke="#9F83B6" stroke-width="2"/>
<circle cx="1241" cy="315" r="2" fill="#9F83B6"/>
<line x1="1242" y1="309" x2="1440" y2="309" stroke="#DA5A98" stroke-width="2"/>
<circle cx="1241" cy="309" r="2" fill="#DA5A98"/>
<line x1="1369" y1="4.37114e-08" x2="1369" y2="86" stroke="#DA1817" stroke-width="2"/>
<line x1="1369.58" y1="85.8137" x2="1348.58" y2="100.814" stroke="#DA1817" stroke-width="2"/>
<line x1="1349" y1="101" x2="1275" y2="101" stroke="#DA1817" stroke-width="2"/>
<line x1="1276.58" y1="100.816" x2="1170.58" y2="175.816" stroke="#DA1817" stroke-width="2"/>
<line x1="1171" y1="175" x2="1171" y2="350" stroke="#DA1817" stroke-width="2"/>
<line x1="735" y1="249" x2="759" y2="249" stroke="#AD7D20" stroke-width="2"/>
<line x1="758" y1="249" x2="758" y2="217" stroke="#AD7D20" stroke-width="2"/>
<line x1="757" y1="216" x2="790" y2="216" stroke="#AD7D20" stroke-width="2"/>
<line x1="789.337" y1="216.251" x2="824.337" y2="185.251" stroke="#AD7D20" stroke-width="2"/>
<line x1="824" y1="186" x2="824" y2="81" stroke="#AD7D20" stroke-width="2"/>
<line x1="824" y1="82" x2="974" y2="82" stroke="#AD7D20" stroke-width="2"/>
<line x1="975" y1="24" x2="975" y2="83" stroke="#AD7D20" stroke-width="2"/>
<circle cx="734" cy="249" r="2" fill="#AD7D20"/>
<circle cx="975" cy="24" r="2" fill="#AD7D20"/>
<line x1="1432" y1="4.37113e-08" x2="1432" y2="163" stroke="#9F9FA0" stroke-width="2"/>
<circle cx="1432" cy="163" r="2" fill="#9F9FA0"/>
<line x1="599" y1="225" x2="671" y2="225" stroke="#DA5A98" stroke-width="2"/>
<circle cx="672" cy="225" r="2" fill="#DA5A98"/>
<circle cx="599" cy="225" r="2" fill="#DA5A98"/>
<line x1="985" y1="25" x2="985" y2="83" stroke="#1AACA8" stroke-width="2"/>
<line x1="985" y1="82" x2="1035" y2="82" stroke="#1AACA8" stroke-width="2"/>
<path d="M1036 81L1036 350" stroke="#1AACA8" stroke-width="2"/>
<circle cx="985" cy="24" r="2" fill="#1AACA8"/>
<circle cx="980" cy="24" r="1" fill="#9DCA40" stroke="#9DCA40" stroke-width="2"/>
<line x1="980" y1="24" x2="980" y2="109" stroke="#9DCA40" stroke-width="2"/>
<line x1="980.537" y1="108.844" x2="969.537" y2="115.844" stroke="#9DCA40" stroke-width="2"/>
<line x1="970" y1="116" x2="956" y2="116" stroke="#9DCA40" stroke-width="2"/>
<line x1="956.819" y1="115.573" x2="949.819" y2="125.573" stroke="#9DCA40" stroke-width="2"/>
<line x1="950" y1="125" x2="950" y2="139" stroke="#9DCA40" stroke-width="2"/>
<line x1="950.537" y1="137.844" x2="928.537" y2="151.844" stroke="#9DCA40" stroke-width="2"/>
<circle cx="930" cy="151" r="1" fill="#9DCA40" stroke="#9DCA40" stroke-width="2"/>
<line x1="990" y1="25" x2="990" y2="75" stroke="#E5683E" stroke-width="2"/>
<line x1="989" y1="74" x2="1038" y2="74" stroke="#E5683E" stroke-width="2"/>
<line x1="1037.69" y1="74.2733" x2="1110.69" y2="143.273" stroke="#E5683E" stroke-width="2"/>
<circle cx="990" cy="24" r="2" fill="#E6632A"/>
<circle cx="1111" cy="144" r="2" fill="#E6632A"/>
<line x1="268" y1="350" x2="268" y2="287" stroke="#2765B0" stroke-width="2"/>
<line x1="267.406" y1="288.195" x2="309.406" y2="257.195" stroke="#2765B0" stroke-width="2"/>
<line x1="309" y1="257" x2="369" y2="257" stroke="#2765B0" stroke-width="2"/>
<circle cx="370" cy="257" r="2" fill="#2765B0"/>
</g>
<defs>
<clipPath id="clip0_9_10">
<rect width="1440" height="350" fill="white"/>
</clipPath>
</defs>
</svg>
